<svg id="visual" viewBox="0 0 900 600" width="900" height="600" xmlns="http://www.w3.org/2000/svg" xmlns:xlink="http://www.w3.org/1999/xlink" version="1.1"><path d="M603 600L600.2 587.5C597.3 575 591.7 550 572.2 525C552.7 500 519.3 475 524.2 450C529 425 572 400 597.2 375C622.3 350 629.7 325 622.8 300C616 275 595 250 570 225C545 200 516 175 523.2 150C530.3 125 573.7 100 600.7 75C627.7 50 638.3 25 643.7 12.5L649 0L900 0L900 12.5C900 25 900 50 900 75C900 100 900 125 900 150C900 175 900 200 900 225C900 250 900 275 900 300C900 325 900 350 900 375C900 400 900 425 900 450C900 475 900 500 900 525C900 550 900 575 900 587.5L900 600Z" fill="#5ea7fa"></path><path d="M648 600L662.2 587.5C676.3 575 704.7 550 701.8 525C699 500 665 475 656.3 450C647.7 425 664.3 400 680.5 375C696.7 350 712.3 325 721.2 300C730 275 732 250 728 225C724 200 714 175 688.7 150C663.3 125 622.7 100 623.8 75C625 50 668 25 689.5 12.5L711 0L900 0L900 12.5C900 25 900 50 900 75C900 100 900 125 900 150C900 175 900 200 900 225C900 250 900 275 900 300C900 325 900 350 900 375C900 400 900 425 900 450C900 475 900 500 900 525C900 550 900 575 900 587.5L900 600Z" fill="#0074ff"></path><path d="M796 600L791.2 587.5C786.3 575 776.7 550 766.5 525C756.3 500 745.7 475 742.7 450C739.7 425 744.3 400 753.3 375C762.3 350 775.7 325 774 300C772.3 275 755.7 250 741.8 225C728 200 717 175 727.3 150C737.7 125 769.3 100 783.8 75C798.3 50 795.7 25 794.3 12.5L793 0L900 0L900 12.5C900 25 900 50 900 75C900 100 900 125 900 150C900 175 900 200 900 225C900 250 900 275 900 300C900 325 900 350 900 375C900 400 900 425 900 450C900 475 900 500 900 525C900 550 900 575 900 587.5L900 600Z" fill="#6600ff"></path></svg>