<svg id="visual" viewBox="0 0 900 600" width="900" height="600" xmlns="http://www.w3.org/2000/svg" xmlns:xlink="http://www.w3.org/1999/xlink" version="1.1"><rect x="0" y="0" width="900" height="600" fill="#140021"></rect><path d="M0 326L129 326L129 259L257 259L257 413L386 413L386 349L514 349L514 422L643 422L643 322L771 322L771 456L900 456L900 416L900 601L900 601L771 601L771 601L643 601L643 601L514 601L514 601L386 601L386 601L257 601L257 601L129 601L129 601L0 601Z" fill="#9900ff"></path><path d="M0 510L129 510L129 389L257 389L257 502L386 502L386 506L514 506L514 498L643 498L643 423L771 423L771 489L900 489L900 411L900 601L900 601L771 601L771 601L643 601L643 601L514 601L514 601L386 601L386 601L257 601L257 601L129 601L129 601L0 601Z" fill="#7700c6"></path><path d="M0 539L129 539L129 556L257 556L257 515L386 515L386 510L514 510L514 483L643 483L643 433L771 433L771 507L900 507L900 475L900 601L900 601L771 601L771 601L643 601L643 601L514 601L514 601L386 601L386 601L257 601L257 601L129 601L129 601L0 601Z" fill="#560090"></path></svg>