<svg id="visual" viewBox="0 0 900 600" width="900" height="600" xmlns="http://www.w3.org/2000/svg" xmlns:xlink="http://www.w3.org/1999/xlink" version="1.1"><path d="M0 302L10.7 296C21.3 290 42.7 278 64.2 300.5C85.7 323 107.3 380 128.8 401.2C150.3 422.3 171.7 407.7 193 404.2C214.3 400.7 235.7 408.3 257 418.3C278.3 428.3 299.7 440.7 321.2 423C342.7 405.3 364.3 357.7 385.8 319.2C407.3 280.7 428.7 251.3 450 269.7C471.3 288 492.7 354 514.2 380.3C535.7 406.7 557.3 393.3 578.8 404.5C600.3 415.7 621.7 451.3 643 450.3C664.3 449.3 685.7 411.7 707 386.7C728.3 361.7 749.7 349.3 771.2 347.2C792.7 345 814.3 353 835.8 361.2C857.3 369.3 878.7 377.7 889.3 381.8L900 386" fill="none" stroke-linecap="round" stroke-linejoin="miter" stroke="#ffffff" stroke-width="10"></path></svg>