<svg id="visual" viewBox="0 0 900 600" width="900" height="600" xmlns="http://www.w3.org/2000/svg" xmlns:xlink="http://www.w3.org/1999/xlink" version="1.1"><path d="M0 241L6.8 244.2C13.7 247.3 27.3 253.7 41 240.3C54.7 227 68.3 194 82 184.7C95.7 175.3 109.3 189.7 123 258.5C136.7 327.3 150.3 450.7 164 474C177.7 497.3 191.3 420.7 204.8 399.2C218.3 377.7 231.7 411.3 245.2 428.2C258.7 445 272.3 445 286 385.3C299.7 325.7 313.3 206.3 327 142.2C340.7 78 354.3 69 368 101.5C381.7 134 395.3 208 409 282C422.7 356 436.3 430 450 442.8C463.7 455.7 477.3 407.3 491 414C504.7 420.7 518.3 482.3 532 508.5C545.7 534.7 559.3 525.3 573 464.2C586.7 403 600.3 290 614 277.7C627.7 265.3 641.3 353.7 654.8 388.7C668.3 423.7 681.7 405.3 695.2 382C708.7 358.7 722.3 330.3 736 358C749.7 385.7 763.3 469.3 777 440.2C790.7 411 804.3 269 818 190.2C831.7 111.3 845.3 95.7 859 85.2C872.7 74.7 886.3 69.3 893.2 66.7L900 64" fill="none" stroke-linecap="round" stroke-linejoin="miter" stroke="#ffffff" stroke-width="30"></path></svg>