<?xml version="1.0" encoding="utf-8"?>
<svg xmlns="http://www.w3.org/2000/svg" viewBox="79.9829 31.4711 360.8301 459.6664" width="360.83px" height="459.666px" preserveAspectRatio="none"><path stroke-width="0" d="M 174.052 32.248 C 178.529 31.728 184.999 30.179 193.456 33.8 C 208.22 40.122 250.685 76.368 255.936 81.146 C 257.132 82.234 256.198 81.755 257.1 82.698 C 259.757 85.475 272.741 96.092 278.445 102.102 C 283.161 107.072 283.085 109.798 289.699 116.073 C 301.968 127.712 349.444 161.394 356.06 167.687 C 357.881 169.419 357.395 170.156 358.001 170.404 C 358.407 170.57 359.17 170.643 359.165 170.016 C 359.146 167.745 346.237 151.015 343.642 143.626 C 341.741 138.214 341.19 133.609 342.09 129.655 C 342.895 126.117 344.752 122.696 347.911 120.73 C 351.71 118.365 362.445 120.685 364.598 118.013 C 366.358 115.83 362.564 110.923 363.046 107.923 C 363.49 105.157 365.605 101.998 366.927 100.55 C 367.819 99.571 368.023 99.468 369.643 98.997 C 373.015 98.018 381.084 96.216 389.047 96.669 C 399.783 97.28 421.246 101.813 429.407 105.207 C 434.234 107.214 436.453 108.826 438.333 111.804 C 440.265 114.863 441.203 119.939 440.661 123.446 C 440.151 126.754 437.696 130.348 435.616 132.372 C 433.838 134.103 432.143 134.882 429.407 135.477 C 425.709 136.281 418.729 136.014 414.66 135.477 C 411.4 135.046 407.964 131.942 406.511 133.148 C 404.839 134.535 407.554 141.623 406.511 145.179 C 405.517 148.566 403.647 152.208 400.689 154.104 C 397.411 156.206 388.538 152.15 387.107 156.433 C 384.448 164.387 407.773 204.479 411.167 216.585 C 412.926 222.857 413.263 225.42 412.72 229.003 C 412.243 232.148 411.361 235.184 408.839 237.153 C 405.699 239.606 399.149 242.132 393.704 241.034 C 386.947 239.672 376.092 229.793 371.584 225.899 C 368.845 223.534 367.595 221.225 366.538 220.078 C 365.969 219.459 366.082 219.687 365.374 218.913 C 363.493 216.855 360.515 211.582 352.956 204.555 C 337.409 190.102 278.641 147.194 262.922 132.76 C 255.237 125.704 256.738 124.636 250.115 118.401 C 239.188 108.114 201.555 76.497 198.113 75.713 C 197.419 75.554 197.28 75.692 197.724 76.877 C 201.175 86.071 297.031 224.275 311.819 248.407 C 316.995 256.854 317.77 257.67 318.805 261.602 C 319.632 264.746 319.743 267.373 318.805 270.14 C 317.763 273.213 315.587 277.25 312.208 279.066 C 308.187 281.226 302.711 282.148 295.132 280.618 C 282.94 278.156 246.506 257.182 243.906 257.333 C 243.187 257.375 244.304 257.878 245.07 259.274 C 247.494 263.687 256.414 278.758 263.698 294.977 C 274.521 319.077 302.942 378.899 303.282 395.877 C 303.435 403.529 299.126 406.222 295.908 408.684 C 293.117 410.819 288.914 411.092 285.818 411.012 C 283.011 410.94 282.259 411.357 278.057 408.684 C 267.125 401.73 225.259 361.984 212.471 349.308 C 205.525 342.422 206.036 341.337 199.665 334.949 C 189.308 324.564 162.96 302.192 151.931 291.096 C 144.598 283.718 138.827 275.97 136.408 273.632 C 135.514 272.769 135.554 273.024 134.856 272.468 C 133.754 271.592 130.364 267.063 130.199 268.587 C 129.683 273.335 161.731 340.349 169.007 364.831 C 173.985 381.584 176.645 395.631 175.992 404.415 C 175.587 409.863 174.32 413.144 171.335 415.669 C 168.038 418.459 161.769 420.493 156.2 419.55 C 149.254 418.373 139.982 410.845 132.915 405.579 C 126.05 400.462 118.433 385.256 114.288 388.504 C 107.359 393.931 114.716 465.722 110.795 479.702 C 109.107 485.721 107.107 486.752 104.198 488.628 C 101.287 490.504 96.818 491.59 93.331 490.956 C 89.691 490.294 84.942 486.693 82.853 484.359 C 81.3 482.623 81.024 481.787 80.525 478.926 C 79.628 473.782 80 461.759 80.525 453.313 C 81.045 444.944 82.991 440.111 83.629 428.476 C 84.657 409.747 80.344 359.66 83.629 346.203 C 85.137 340.029 87.198 338.507 90.227 336.501 C 93.27 334.485 98.264 333.966 101.869 334.173 C 105.21 334.364 108.144 335.358 111.183 337.277 C 114.766 339.54 118.001 343.588 121.661 347.755 C 125.958 352.647 133.749 364.844 135.244 365.219 C 135.813 365.362 135.995 364.976 135.632 363.279 C 133.776 354.589 98.819 279.691 91.391 254.617 C 86.875 239.372 84.841 228.651 85.958 221.242 C 86.679 216.46 88.733 213.568 91.779 211.54 C 95.112 209.321 100.807 208.163 105.75 209.211 C 111.677 210.469 122.283 218.794 124.766 220.854 C 125.701 221.629 125.268 221.745 125.93 222.406 C 127.065 223.538 130.616 225.931 131.751 227.063 C 132.414 227.724 132.253 227.955 132.915 228.615 C 134.05 229.747 137.239 231.855 138.737 233.272 C 139.918 234.391 140.272 235.258 141.453 236.377 C 142.95 237.795 146.139 239.902 147.274 241.034 C 147.937 241.695 147.682 241.692 148.439 242.586 C 150.276 244.759 157.599 253.183 160.469 255.781 C 162.157 257.309 162.34 256.718 164.35 258.497 C 168.772 262.414 178.505 273.656 188.023 282.946 C 199.864 294.505 221.628 313.336 231.099 322.918 C 237.018 328.907 240.094 333.507 243.13 336.501 C 245.087 338.433 247.058 340.495 247.787 340.382 C 248.252 340.31 248.575 339.993 248.175 338.442 C 246.382 331.493 217.519 282.25 210.919 263.154 C 206.504 250.379 204.542 240.496 205.486 232.884 C 206.183 227.264 208.703 222.586 212.083 220.078 C 215.367 217.641 219.415 217.052 225.278 217.749 C 234.405 218.835 261.206 232.163 263.31 231.72 C 263.973 231.58 263.295 231.523 262.145 229.78 C 256.093 220.6 195.768 136.078 180.649 111.028 C 172.445 97.434 169.902 93.594 166.678 83.086 C 163.149 71.581 159.734 52.455 161.245 44.278 C 162.178 39.231 165.42 36.553 167.842 34.576 C 169.771 33.003 171.141 32.586 174.052 32.248 Z M 197.724 74.936 L 197.724 75.713 L 197.724 74.936 Z M 248.951 340.382 L 248.951 341.158 L 248.951 340.382 Z M 136.408 365.219 L 136.408 365.995 L 136.408 365.219 Z M 137.184 366.771 L 137.184 367.547 L 137.184 366.771 Z" style="stroke-width: 2px; fill-rule: nonzero; paint-order: stroke; stroke: rgba(255, 255, 255, 0); fill: rgb(195, 94, 193);" id="object-0" transform="matrix(1, 0, 0, 1, 0, 1.4210854715202004e-14)"/></svg>